<?xml version="1.0" encoding="UTF-8" standalone="no"?>
<!-- Created with Inkscape (http://www.inkscape.org/) -->

<svg
   xmlns:dc="http://purl.org/dc/elements/1.1/"
   xmlns:cc="http://creativecommons.org/ns#"
   xmlns:rdf="http://www.w3.org/1999/02/22-rdf-syntax-ns#"
   xmlns:svg="http://www.w3.org/2000/svg"
   xmlns="http://www.w3.org/2000/svg"
   xmlns:sodipodi="http://sodipodi.sourceforge.net/DTD/sodipodi-0.dtd"
   xmlns:inkscape="http://www.inkscape.org/namespaces/inkscape"
   width="512"
   height="512"
   id="svg5381"
   version="1.1"
   inkscape:version="0.48.2 r9819"
   sodipodi:docname="canvas.svg">
  <defs
     id="defs5383" />
  <sodipodi:namedview
     id="base"
     pagecolor="#ffffff"
     bordercolor="#666666"
     borderopacity="1.0"
     inkscape:pageopacity="0.0"
     inkscape:pageshadow="2"
     inkscape:zoom="0.70710678"
     inkscape:cx="371.73797"
     inkscape:cy="176.15225"
     inkscape:document-units="px"
     inkscape:current-layer="layer1"
     showgrid="true"
     showguides="true"
     inkscape:guide-bbox="true"
     inkscape:window-width="1366"
     inkscape:window-height="706"
     inkscape:window-x="-8"
     inkscape:window-y="-8"
     inkscape:window-maximized="1">
    <inkscape:grid
       type="xygrid"
       id="grid5389"
       empspacing="5"
       visible="true"
       enabled="true"
       snapvisiblegridlinesonly="true" />
  </sodipodi:namedview>
  <metadata
     id="metadata5386">
    <rdf:RDF>
      <cc:Work
         rdf:about="">
        <dc:format>image/svg+xml</dc:format>
        <dc:type
           rdf:resource="http://purl.org/dc/dcmitype/StillImage" />
        <dc:title></dc:title>
      </cc:Work>
    </rdf:RDF>
  </metadata>
  <g
     inkscape:label="Ebene 1"
     inkscape:groupmode="layer"
     id="layer1"
     transform="translate(0,-540.36218)">
    <flowRoot
       xml:space="preserve"
       id="flowRoot7110"
       style="font-size:24px;font-style:normal;font-weight:normal;line-height:125%;letter-spacing:0px;word-spacing:0px;fill:#000000;fill-opacity:1;stroke:#a5a5a5;stroke-width:1px;stroke-linecap:butt;stroke-linejoin:miter;stroke-opacity:1;font-family:Sans"
       transform="translate(107.86396,43.606191)"><flowRegion
         id="flowRegion7112"><rect
           id="rect7114"
           width="98.294044"
           height="32.349937"
           x="175.4362"
           y="320.38882"
           style="stroke:#a5a5a5;stroke-opacity:1" /></flowRegion><flowPara
         id="flowPara7116" /></flowRoot>    <g
       id="g3820"
       transform="matrix(1.1669011,0,0,1.1469691,-30.342716,-133.58387)"
       style="stroke:#1f1f1f;stroke-width:13.25471497;stroke-miterlimit:4;stroke-opacity:1;stroke-dasharray:none">
      <path
         inkscape:connector-curvature="0"
         id="path7232"
         d="m 42,966.36218 c 11.249957,-4.6536 19.863913,-14.22739 31,-19 2.070669,-0.88743 40.12634,-5.87366 41,-5 2.53859,2.53859 -2.61919,6.68605 -4,10 -5.83165,13.99597 -13.20217,30.20217 -24,41 -3.089838,3.08984 -22,17.91512 -22,24.00002 0,1.757 8.06741,-3.5433 15,-8 17.21087,-11.06415 31.24963,-16.70829 51,-20.00002 2.42466,-0.40411 11.9126,0.3916 14,-1 0.83345,-0.55564 7.05,-4.95 9,-3 1.29844,1.29844 -2.4435,5.33049 -3,7 -1.47398,4.42193 0.0701,8.71952 -1,13.00002 -0.21612,0.8645 -1.11211,8.0747 -1,8 7.86771,-5.2452 16.21655,-16.66244 22,-21.00002 10.40799,-7.80599 4.38184,18.85452 6,14.00002 3.75246,-11.2574 14.72742,-15.63631 6,-20.00002"
         style="fill:none;stroke:#1f1f1f;stroke-width:13.25471497;stroke-linecap:butt;stroke-linejoin:miter;stroke-miterlimit:4;stroke-opacity:1;stroke-dasharray:none" />
      <g
         transform="matrix(0.97299632,0.5849811,-0.5849811,0.97299632,820.42753,288.47365)"
         id="g3811"
         style="stroke:#1f1f1f;stroke-width:11.67499256;stroke-miterlimit:4;stroke-opacity:1;stroke-dasharray:none">
        <path
           style="fill:#ffffff;fill-opacity:1;stroke:#1f1f1f;stroke-width:11.67499256;stroke-linecap:round;stroke-linejoin:round;stroke-miterlimit:4;stroke-opacity:1;stroke-dasharray:none"
           d="m -210,722.36218 0,-270 30,20 40,0 30,-20 0,270 c -9.55063,-3.25736 -19.45144,-1.37888 -30,10 l -40,0 c -9.11131,-10.62063 -19.22361,-13.03309 -30,-10 z"
           id="path2998"
           inkscape:connector-curvature="0"
           sodipodi:nodetypes="ccccccccc" />
        <path
           style="fill:#ffffff;fill-opacity:1;stroke:#1f1f1f;stroke-width:11.67499256;stroke-linecap:round;stroke-linejoin:round;stroke-miterlimit:4;stroke-opacity:1;stroke-dasharray:none"
           d="m -210,182 c 10.79516,-4.41952 20.52635,1.53472 30,10 18.4576,-13.55991 23.66657,-4.52311 40,-2 11.42374,-11.29203 22.71446,-6.85653 30,-8 l -40,80 -20,0 z"
           id="path3788"
           inkscape:connector-curvature="0"
           transform="translate(0,540.36218)"
           sodipodi:nodetypes="ccccccc" />
        <path
           style="fill:none;stroke:#1f1f1f;stroke-width:11.67499256;stroke-linecap:round;stroke-linejoin:round;stroke-miterlimit:4;stroke-opacity:1;stroke-dasharray:none"
           d="m -169.33443,803.02775 c 9.33443,13.75494 18.66886,0 18.66886,0"
           id="path3790"
           inkscape:connector-curvature="0" />
        <path
           style="fill:#ffffff;fill-opacity:1;stroke:#1f1f1f;stroke-width:11.67499256;stroke-linecap:round;stroke-linejoin:round;stroke-miterlimit:4;stroke-opacity:1;stroke-dasharray:none"
           d="m -210,-88 30,-20 40,0 30,20 -30,20 -40,0 z"
           id="path3792"
           inkscape:connector-curvature="0"
           transform="translate(0,540.36218)"
           sodipodi:nodetypes="ccccccc" />
        <path
           inkscape:connector-curvature="0"
           id="path3794"
           style="fill:none;stroke:#1f1f1f;stroke-width:11.67499256;stroke-linecap:butt;stroke-linejoin:miter;stroke-miterlimit:4;stroke-opacity:1;stroke-dasharray:none"
           d="m -173.33333,452.36218 6.66666,6.66667 13.33334,0 6.66666,-6.66667 -6.66666,-6.66667 -13.33334,0 z" />
        <path
           style="fill:none;stroke:#1f1f1f;stroke-width:11.67499256;stroke-linecap:butt;stroke-linejoin:miter;stroke-miterlimit:4;stroke-opacity:1;stroke-dasharray:none"
           d="m -180,-68 c 0,260 0,260 0,260"
           id="path3797"
           inkscape:connector-curvature="0"
           transform="translate(0,540.36218)" />
        <path
           style="fill:none;stroke:#1f1f1f;stroke-width:11.67499256;stroke-linecap:butt;stroke-linejoin:miter;stroke-miterlimit:4;stroke-opacity:1;stroke-dasharray:none"
           d="m -140,-68 0,260"
           id="path3799"
           inkscape:connector-curvature="0"
           transform="translate(0,540.36218)" />
      </g>
    </g>
  </g>
</svg>
