<?xml version="1.0" encoding="UTF-8" standalone="no"?>
<!-- Created with Inkscape (http://www.inkscape.org/) -->

<svg
   xmlns:dc="http://purl.org/dc/elements/1.1/"
   xmlns:cc="http://creativecommons.org/ns#"
   xmlns:rdf="http://www.w3.org/1999/02/22-rdf-syntax-ns#"
   xmlns:svg="http://www.w3.org/2000/svg"
   xmlns="http://www.w3.org/2000/svg"
   xmlns:sodipodi="http://sodipodi.sourceforge.net/DTD/sodipodi-0.dtd"
   xmlns:inkscape="http://www.inkscape.org/namespaces/inkscape"
   width="512"
   height="512"
   id="svg3820"
   version="1.1"
   inkscape:version="0.48.2 r9819"
   sodipodi:docname="drucker.svg">
  <defs
     id="defs3822" />
  <sodipodi:namedview
     id="base"
     pagecolor="#ffffff"
     bordercolor="#666666"
     borderopacity="1.0"
     inkscape:pageopacity="0.0"
     inkscape:pageshadow="2"
     inkscape:zoom="0.52"
     inkscape:cx="435.27051"
     inkscape:cy="150.18478"
     inkscape:document-units="px"
     inkscape:current-layer="layer1"
     showgrid="false"
     showguides="true"
     inkscape:guide-bbox="true"
     inkscape:window-width="1366"
     inkscape:window-height="706"
     inkscape:window-x="-8"
     inkscape:window-y="-8"
     inkscape:window-maximized="1">
    <inkscape:grid
       type="xygrid"
       id="grid3828"
       empspacing="5"
       visible="true"
       enabled="true"
       snapvisiblegridlinesonly="true" />
  </sodipodi:namedview>
  <metadata
     id="metadata3825">
    <rdf:RDF>
      <cc:Work
         rdf:about="">
        <dc:format>image/svg+xml</dc:format>
        <dc:type
           rdf:resource="http://purl.org/dc/dcmitype/StillImage" />
        <dc:title></dc:title>
      </cc:Work>
    </rdf:RDF>
  </metadata>
  <g
     inkscape:label="Ebene 1"
     inkscape:groupmode="layer"
     id="layer1"
     transform="translate(0,-540.36218)">
    <g
       id="g3861"
       transform="matrix(0.76577535,0,0,0.76577535,10.903775,186.52765)">
      <path
         style="fill:#ffffff;fill-opacity:1;stroke:#1f1f1f;stroke-width:22.52656555;stroke-linecap:butt;stroke-linejoin:round;stroke-miterlimit:4;stroke-opacity:1;stroke-dasharray:none"
         d="m 197.59302,649.13329 -92.38793,0 -92.387943,60.91051 0,60.91052 123.183913,0 c 127.07616,36.56718 250.06837,34.76626 369.55175,0 l 123.18391,0 0,-60.91052 -92.38793,-60.91051 -92.38794,0 0,60.91051 -246.36783,0 z"
         id="path3806"
         inkscape:connector-curvature="0"
         sodipodi:nodetypes="ccccccccccccc" />
      <path
         inkscape:connector-curvature="0"
         style="fill:#ffffff;fill-opacity:1;stroke:#1f1f1f;stroke-width:22.52656555;stroke-linecap:round;stroke-linejoin:round;stroke-miterlimit:4;stroke-opacity:1;stroke-dasharray:none"
         d="m 196.915,551.56298 242.01984,0 c 0.19155,0 0.34566,0.15258 0.34566,0.34182 l 0,155.17631 c 0,0.18943 -0.15429,0.34183 -0.34566,0.34183 l -242.01984,0 c -0.19156,0 -0.34565,-0.15258 -0.34565,-0.34183 l 0,-155.17631 c 0,-0.18942 0.15429,-0.34182 0.34565,-0.34182 z"
         id="path3808" />
      <path
         style="fill:#ffffff;fill-opacity:1;stroke:#1f1f1f;stroke-width:22.52656555;stroke-linecap:butt;stroke-linejoin:round;stroke-miterlimit:4;stroke-opacity:1;stroke-dasharray:none"
         d="m 11.388938,768.73364 0,182.73156 30.795979,30.45524 90.336663,0 -48.18968,59.24096 467.20212,0 -41.26605,-59.24096 86.24456,0 30.79598,-30.45524 0,-182.73156 -123.18391,0 c -117.92932,34.64303 -240.24559,40.36345 -369.55175,0 l -123.183912,0"
         id="path3810"
         inkscape:connector-curvature="0"
         sodipodi:nodetypes="ccccccccccccc" />
      <path
         inkscape:connector-curvature="0"
         style="fill:#ffffff;fill-opacity:1;stroke:#1f1f1f;stroke-width:22.52656555;stroke-linecap:round;stroke-linejoin:round;stroke-miterlimit:4;stroke-opacity:1;stroke-dasharray:none"
         d="m 49.291909,810.0977 48.969158,0 c 0.122945,0 0.221846,0.0979 0.221846,0.21938 l 0,38.65415 c 0,0.12153 -0.09902,0.21938 -0.221846,0.21938 l -48.969158,0 c -0.122902,0 -0.221845,-0.0979 -0.221845,-0.21938 l 0,-38.65415 c 0,-0.12153 0.09895,-0.21938 0.221845,-0.21938 z"
         id="path3812" />
      <path
         inkscape:connector-curvature="0"
         style="fill:#ffffff;fill-opacity:1;stroke:#1f1f1f;stroke-width:22.52656555;stroke-linecap:round;stroke-linejoin:round;stroke-miterlimit:4;stroke-opacity:1;stroke-dasharray:none"
         d="m 143.82022,808.15395 25.61795,0 c 0.0643,0 0.1161,0.0512 0.1161,0.11467 l 0,20.22171 c 0,0.0636 -0.0518,0.11466 -0.1161,0.11466 l -25.61795,0 c -0.0643,0 -0.11609,-0.0512 -0.11609,-0.11466 l 0,-20.22171 c 0,-0.0636 0.0518,-0.11467 0.11609,-0.11467 z"
         id="path3814" />
      <path
         style="opacity:0.93939394;fill:#1f1f1f;fill-opacity:1;stroke:#1f1f1f;stroke-width:22.52656555;stroke-linecap:round;stroke-linejoin:round;stroke-miterlimit:4;stroke-opacity:1;stroke-dasharray:none"
         d="m 506.22957,971.15636 0,-84.00602 -368.09864,0 0,84.00602 42.0649,0 25.89177,-42.00301 226.52224,0 28.31528,42.00301 1.0543,0 z"
         id="path3816"
         inkscape:connector-curvature="0"
         sodipodi:nodetypes="cccccccccc" />
      <path
         style="fill:none;stroke:#1f1f1f;stroke-width:22.52656555;stroke-linecap:round;stroke-linejoin:round;stroke-miterlimit:4;stroke-opacity:1;stroke-dasharray:none"
         d="m 152.28857,1015.9596 28.31528,-42.00301 28.31528,-42.00304 226.52224,0 56.63056,84.00605 z"
         id="path3818"
         inkscape:connector-curvature="0" />
    </g>
  </g>
</svg>
